<svg id="SvgjsSvg1009" width="288" height="288" xmlns="http://www.w3.org/2000/svg" version="1.1" xmlnsXlink="http://www.w3.org/1999/xlink" xmlnsSvgjs="http://svgjs.com/svgjs"><defs id="SvgjsDefs1010"></defs><g id="SvgjsG1011"><svg xmlns="http://www.w3.org/2000/svg" width="288" height="288" enable-background="new 0 0 96 96" viewBox="0 0 96 96"><circle cx="35" cy="27" r="1" fill="none" stroke="#dba90d" stroke-linecap="round" stroke-miterlimit="10" stroke-width="4" class="colorStroke000 svgStroke"></circle><circle cx="35" cy="27" r="13" fill="none" stroke="#dba90d" stroke-linecap="round" stroke-miterlimit="10" stroke-width="4" class="colorStroke000 svgStroke"></circle><circle cx="93" cy="24" r="1" fill="none" stroke="#dba90d" stroke-linecap="round" stroke-linejoin="round" stroke-miterlimit="10" stroke-width="4" class="colorStroke000 svgStroke"></circle><circle cx="84" cy="91" r="1" fill="none" stroke="#dba90d" stroke-linecap="round" stroke-linejoin="round" stroke-miterlimit="10" stroke-width="4" class="colorStroke000 svgStroke"></circle><circle cx="86" cy="7" r="5" fill="none" stroke="#dba90d" stroke-linecap="round" stroke-linejoin="round" stroke-miterlimit="10" stroke-width="4" class="colorStroke000 svgStroke"></circle><line x1="2" x2="94" y1="48" y2="48" fill="none" stroke="#dba90d" stroke-linecap="round" stroke-miterlimit="10" stroke-width="4" class="colorStroke000 svgStroke"></line><line x1="61" x2="74" y1="9" y2="9" fill="none" stroke="#dba90d" stroke-linecap="round" stroke-miterlimit="10" stroke-width="4" class="colorStroke000 svgStroke"></line><line x1="71" x2="86" y1="24" y2="24" fill="none" stroke="#dba90d" stroke-linecap="round" stroke-miterlimit="10" stroke-width="4" class="colorStroke000 svgStroke"></line><line x1="68" x2="84" y1="30" y2="30" fill="none" stroke="#dba90d" stroke-linecap="round" stroke-miterlimit="10" stroke-width="4" class="colorStroke000 svgStroke"></line><line x1="68" x2="78" y1="16" y2="16" fill="none" stroke="#dba90d" stroke-linecap="round" stroke-miterlimit="10" stroke-width="4" class="colorStroke000 svgStroke"></line><line x1="71" x2="48" y1="94" y2="94" fill="none" stroke="#dba90d" stroke-linecap="round" stroke-miterlimit="10" stroke-width="4" class="colorStroke000 svgStroke"></line><line x1="90" x2="75" y1="75" y2="75" fill="none" stroke="#dba90d" stroke-linecap="round" stroke-miterlimit="10" stroke-width="4" class="colorStroke000 svgStroke"></line><line x1="87" x2="66" y1="69" y2="69" fill="none" stroke="#dba90d" stroke-linecap="round" stroke-miterlimit="10" stroke-width="4" class="colorStroke000 svgStroke"></line><line x1="82" x2="72" y1="82" y2="82" fill="none" stroke="#dba90d" stroke-linecap="round" stroke-miterlimit="10" stroke-width="4" class="colorStroke000 svgStroke"></line><line x1="83" x2="93.623" y1="42" y2="42" fill="none" stroke="#dba90d" stroke-linecap="round" stroke-miterlimit="10" stroke-width="4" class="colorStroke000 svgStroke"></line><line x1="86" x2="92.612" y1="59" y2="59" fill="none" stroke="#dba90d" stroke-linecap="round" stroke-miterlimit="10" stroke-width="4" class="colorStroke000 svgStroke"></line><line x1="89" x2="93.586" y1="54" y2="54" fill="none" stroke="#dba90d" stroke-linecap="round" stroke-miterlimit="10" stroke-width="4" class="colorStroke000 svgStroke"></line><path fill="none" stroke="#dba90d" stroke-linecap="round" stroke-miterlimit="10" stroke-width="4" d="M52.003 83.78c-.608.067-1.221.119-1.837.156M43 84c-9.908-1.492-18.899-7.425-24.431-15.263" class="colorStroke000 svgStroke"></path><line x1="83" x2="81" y1="54" y2="54" fill="none" stroke="#dba90d" stroke-linecap="round" stroke-miterlimit="10" stroke-width="4" class="colorStroke000 svgStroke"></line><line x1="78" x2="76" y1="59" y2="59" fill="none" stroke="#dba90d" stroke-linecap="round" stroke-miterlimit="10" stroke-width="4" class="colorStroke000 svgStroke"></line><line x1="60" x2="58" y1="69" y2="69" fill="none" stroke="#dba90d" stroke-linecap="round" stroke-miterlimit="10" stroke-width="4" class="colorStroke000 svgStroke"></line><line x1="64" x2="62" y1="24" y2="24" fill="none" stroke="#dba90d" stroke-linecap="round" stroke-miterlimit="10" stroke-width="4" class="colorStroke000 svgStroke"></line><path fill="none" stroke="#dba90d" stroke-linecap="round" stroke-linejoin="round" stroke-miterlimit="10" stroke-width="4" d="		M69.175,88.873c0,0,8.492-3.665,12.159-22.578c0,0,0.104-2.546,9.679-2.296h0.003C92.944,59,94,53.585,94,47.833
		c0-4.098-0.536-7.904-1.541-11.686l-0.088-0.324C83.167,36.583,79.333,34,79.333,34c-4-21.333-14.159-28.686-14.159-28.686
		l-0.046-0.019C59.835,3.17,54.054,2,48,2C22.595,2,2,22.595,2,48s20.595,46,46,46C55.645,94,62.831,92.174,69.175,88.873
		L69.175,88.873z" class="colorStroke000 svgStroke"></path></svg></g></svg>